<?xml version="1.0" standalone="no"?>
<!DOCTYPE svg PUBLIC "-//W3C//DTD SVG 20010904//EN"
 "http://www.w3.org/TR/2001/REC-SVG-20010904/DTD/svg10.dtd">
<svg version="1.0" xmlns="http://www.w3.org/2000/svg"
 width="180.000000pt" height="180.000000pt" viewBox="0 0 180.000000 180.000000"
 preserveAspectRatio="xMidYMid meet">

<g transform="translate(0.000000,180.000000) scale(0.100000,-0.100000)"
fill="#000000" stroke="none">
<path d="M790 1774 c-222 -40 -380 -120 -520 -263 -339 -349 -327 -908 27
-1242 183 -173 392 -249 651 -236 142 7 207 24 337 87 177 86 308 216 396 395
57 117 77 187 87 308 43 508 -334 935 -838 952 -63 2 -126 2 -140 -1z m278
-40 c226 -46 436 -195 556 -393 260 -431 91 -990 -367 -1206 -119 -57 -213
-77 -357 -77 -155 0 -242 21 -390 93 -91 46 -116 64 -201 148 -188 187 -271
399 -256 656 24 396 320 721 717 788 63 11 227 6 298 -9z"/>
<path d="M725 1716 c-169 -39 -287 -106 -416 -235 -84 -85 -102 -109 -147
-201 -66 -135 -83 -198 -89 -341 -18 -402 231 -738 627 -845 102 -27 301 -25
410 4 288 79 509 299 592 589 18 63 22 104 23 213 0 143 -11 203 -59 322 -90
222 -288 400 -531 478 -89 29 -316 37 -410 16z m189 -92 c9 -65 8 -94 -3 -94
-6 0 -11 21 -13 48 l-3 47 -16 -44 c-8 -25 -20 -46 -25 -48 -5 -2 -20 16 -32
39 l-22 43 2 -42 c1 -24 -2 -44 -7 -45 -6 -2 -11 27 -13 65 -4 82 10 88 41 17
12 -27 25 -50 28 -50 4 0 9 12 12 28 9 42 26 82 35 82 5 0 12 -21 16 -46z
m120 26 c51 -19 24 -89 -29 -76 -20 5 -26 2 -31 -19 -3 -14 -10 -25 -16 -25
-5 0 -7 8 -5 18 3 9 8 38 12 65 7 51 18 57 69 37z m80 -62 c-17 -50 -18 -75
-1 -81 23 -8 44 12 57 58 13 48 37 65 25 18 -15 -61 -34 -93 -55 -93 -32 0
-60 18 -60 39 0 29 31 111 40 106 5 -3 2 -24 -6 -47z m-380 -1 c21 -45 12 -81
-24 -92 -54 -17 -103 73 -64 116 28 32 65 21 88 -24z m596 -58 c0 -6 -9 -5
-21 1 -11 7 -22 10 -23 8 -2 -2 -15 -24 -30 -51 -16 -26 -32 -45 -37 -42 -4 3
6 29 23 57 28 45 29 51 15 60 -10 5 -17 13 -17 18 0 5 20 -3 45 -17 25 -13 45
-29 45 -34z m-740 26 c0 -2 -12 -3 -26 -2 -38 3 -53 -25 -32 -60 17 -28 67
-45 69 -24 3 26 4 30 12 37 4 4 7 -5 7 -19 0 -56 -72 -61 -104 -7 -22 38 -15
77 17 89 19 8 57 -2 57 -14z m781 -62 c-16 -30 -79 -98 -84 -93 -7 7 73 110
85 110 5 0 5 -7 -1 -17z m-980 -47 c-19 -20 -20 -24 -6 -36 13 -11 19 -10 35
5 11 10 23 15 28 11 4 -4 -3 -16 -15 -26 l-22 -17 21 -22 c41 -44 6 -34 -39
12 l-47 46 29 31 c16 16 31 28 33 25 3 -3 -5 -16 -17 -29z m1030 -37 c-16 -68
-13 -73 20 -40 17 17 36 31 42 31 6 0 -11 -22 -38 -50 -27 -27 -52 -47 -56
-42 -4 4 -1 34 6 66 l14 59 -38 -37 c-55 -54 -59 -30 -4 26 26 26 51 44 55 40
5 -5 4 -29 -1 -53z m-366 26 c189 -50 350 -214 400 -410 88 -344 -187 -695
-545 -695 -251 0 -482 177 -544 416 -20 78 -21 213 -1 288 49 186 211 351 394
402 65 18 225 17 296 -1z m-680 -100 c29 -28 32 -51 8 -77 -21 -24 -54 -23
-87 3 -28 22 -35 66 -14 87 20 20 67 14 93 -13z m1181 -34 c13 -25 9 -51 -8
-51 -6 0 -8 7 -4 15 16 43 -33 60 -74 27 -18 -15 -22 -25 -16 -46 9 -36 42
-32 38 4 -3 24 -2 24 13 6 21 -27 19 -35 -11 -48 -23 -11 -29 -10 -45 11 -26
32 -24 58 8 87 35 32 82 30 99 -5z m-1355 -140 c-9 -17 -8 -22 9 -31 18 -10
22 -7 31 19 6 17 15 28 20 25 5 -3 5 -13 -1 -24 -15 -27 -12 -37 9 -43 14 -3
23 3 31 24 7 16 16 29 21 29 7 0 -14 -66 -24 -77 -8 -7 -117 42 -117 53 0 22
22 70 27 57 2 -7 -1 -21 -6 -32z m1423 -14 c20 -15 19 -68 -2 -75 -11 -3 -11
0 -1 16 10 17 10 23 0 36 -18 22 -41 3 -41 -34 0 -37 -22 -55 -49 -40 -26 13
-32 62 -10 84 15 16 21 -1 7 -23 -11 -18 -10 -23 5 -38 15 -16 19 -16 27 -3 5
8 10 26 10 41 0 23 16 49 30 49 3 0 14 -6 24 -13z m-1443 -104 c-24 -17 -27
-36 -7 -52 20 -17 76 -17 87 0 14 22 11 49 -6 49 -7 0 -19 -8 -24 -17 -9 -15
-10 -14 -11 10 0 22 4 27 25 27 37 0 54 -40 31 -75 -13 -20 -25 -25 -56 -25
-22 0 -45 7 -54 16 -21 21 -20 70 1 83 26 14 38 1 14 -16z m1483 -34 c9 -47 7
-81 -4 -74 -5 3 -10 14 -10 24 0 15 -7 16 -57 10 -32 -3 -60 -5 -62 -3 -10 9
11 16 61 23 47 6 53 9 52 29 -1 33 13 27 20 -9z m-1509 -116 c1 -21 7 -29 23
-31 19 -3 22 2 24 30 l1 33 4 -32 c4 -27 9 -33 28 -33 20 0 24 6 28 38 3 34 4
33 5 -10 l2 -48 -65 0 -65 0 0 47 c0 49 12 53 15 6z m1515 -3 c0 -5 -26 -10
-57 -12 -54 -3 -58 -5 -58 -28 0 -23 4 -25 50 -28 71 -5 82 -22 14 -22 -43 0
-60 5 -73 19 -19 20 -14 59 8 73 16 11 116 10 116 -2z m-1390 -79 c0 -5 3 -22
6 -38 6 -29 4 -30 -38 -37 -23 -4 -53 -9 -65 -13 -13 -3 -23 -1 -23 5 0 6 17
14 38 17 72 13 75 15 68 46 -3 16 -1 29 4 29 6 0 10 -4 10 -9z m1367 -66 c18
-6 -4 -63 -29 -76 -23 -13 -72 -3 -89 17 -12 15 -15 66 -5 83 5 7 53 -2 123
-24z m-1337 -61 c7 -19 10 -37 8 -38 -1 -2 -23 -10 -48 -18 -25 -9 -53 -19
-62 -23 -10 -4 -18 -3 -18 3 0 5 21 17 48 27 61 23 65 27 53 58 -6 15 -7 27
-2 27 5 0 15 -16 21 -36z m1299 -79 c2 -3 2 -7 -1 -10 -8 -9 -128 46 -122 56
4 7 109 -32 123 -46z m-32 -62 c5 -13 -36 -77 -44 -69 -3 3 2 17 11 31 9 14
14 30 11 35 -10 17 -34 11 -45 -11 -7 -11 -14 -18 -17 -16 -2 3 1 15 7 28 11
19 10 25 -6 36 -16 12 -20 10 -37 -17 -10 -16 -21 -30 -23 -30 -9 0 -3 16 16
48 l20 33 51 -28 c28 -15 53 -33 56 -40z m-1217 36 c17 -30 5 -62 -29 -82 -36
-21 -55 -22 -75 -1 -24 23 -19 60 10 83 35 28 80 27 94 0z m1085 -78 c-6 -5
-19 -11 -30 -13 -12 -2 -21 -13 -23 -26 -4 -26 8 -28 48 -7 16 8 36 12 44 9
21 -8 21 -48 0 -68 -17 -18 -54 -22 -54 -6 0 6 8 10 19 10 25 0 48 27 34 41
-7 7 -22 4 -46 -7 -30 -14 -39 -15 -52 -4 -22 18 -19 46 7 64 24 17 69 23 53
7z m-1015 -21 c27 -27 25 -49 -7 -82 -30 -31 -64 -36 -87 -12 -18 17 -21 50
-6 59 6 3 10 -4 10 -17 0 -46 32 -55 73 -20 20 17 23 61 5 64 -7 0 -17 2 -23
3 -5 2 -14 3 -20 4 -11 1 15 21 28 21 4 0 16 -9 27 -20z m110 -155 c0 -8 -9
-15 -20 -15 -11 0 -20 7 -20 15 0 8 9 15 20 15 11 0 20 -7 20 -15z m773 0 c1
-5 -6 -11 -15 -13 -11 -2 -18 3 -18 13 0 17 30 18 33 0z m-119 -35 c21 -54 20
-87 -3 -100 -43 -22 -61 -13 -87 45 -28 65 -28 65 -10 65 8 0 22 -20 31 -44
19 -48 37 -62 54 -42 9 10 6 25 -8 59 -18 42 -18 57 0 57 4 0 14 -18 23 -40z
m-536 -15 c-2 -25 -2 -45 -2 -45 1 0 12 16 23 36 28 47 46 40 43 -17 l-2 -44
20 38 c11 20 27 37 36 37 11 0 7 -14 -18 -60 -40 -73 -64 -77 -60 -10 l2 45
-22 -37 c-13 -21 -27 -36 -33 -35 -12 4 -19 80 -10 114 10 41 27 26 23 -22z
m197 -47 c12 -53 17 -54 34 -7 12 31 23 45 38 47 21 3 22 1 16 -65 -6 -76 -7
-78 -23 -68 -8 5 -10 22 -7 49 l6 41 -19 -40 c-10 -22 -25 -40 -32 -40 -7 0
-18 18 -24 40 l-12 40 -1 -42 c-1 -31 -5 -43 -16 -43 -12 0 -15 14 -15 63 0
35 3 67 6 70 13 13 43 -14 49 -45z m213 34 c2 -8 -6 -11 -27 -10 -42 4 -43
-12 -1 -26 38 -12 54 -51 28 -67 -21 -14 -65 -10 -79 7 -11 14 -9 15 24 9 30
-6 37 -4 37 9 0 9 -8 16 -19 16 -10 0 -29 8 -41 18 -20 16 -21 21 -11 41 10
18 19 22 48 19 20 -2 38 -9 41 -16z"/>
<path d="M987 1634 c-4 -4 -7 -16 -7 -26 0 -13 8 -18 31 -18 26 0 30 3 27 23
-3 22 -36 36 -51 21z"/>
<path d="M667 1608 c-21 -11 -22 -47 -1 -76 32 -46 73 -15 54 42 -12 38 -28
48 -53 34z"/>
<path d="M752 1247 c-76 -71 -82 -81 -59 -85 9 -2 17 2 17 9 0 8 26 39 57 71
l57 58 86 0 c84 0 87 -1 118 -33 33 -34 41 -74 20 -95 -9 -9 -7 -13 6 -18 24
-9 26 -5 19 44 -4 31 -15 52 -42 77 -35 35 -36 35 -124 35 l-88 0 -67 -63z"/>
<path d="M679 1273 c-25 -3 -45 -14 -65 -36 l-29 -32 32 28 c26 24 38 28 75
25 23 -1 44 2 46 7 4 12 -9 13 -59 8z"/>
<path d="M899 1263 c-1 -5 0 -45 1 -90 1 -51 -2 -83 -8 -83 -6 0 -13 8 -15 18
-4 16 -5 16 -6 0 0 -10 -6 -18 -12 -18 -8 0 -10 17 -6 55 4 42 2 55 -8 55 -10
0 -12 -12 -8 -54 l6 -54 -34 2 c-25 1 -37 8 -46 26 -13 27 -34 33 -40 13 -3
-7 7 -17 21 -23 22 -8 26 -16 26 -50 0 -32 -4 -40 -18 -40 -10 0 -23 5 -30 12
-9 9 -15 9 -23 1 -19 -19 -1 -32 36 -26 34 5 50 -9 23 -20 -10 -4 -10 -6 0 -6
7 -1 12 -14 12 -31 0 -24 -4 -29 -21 -27 -12 1 -24 -4 -27 -12 -3 -10 2 -13
22 -9 23 5 26 2 26 -24 0 -16 7 -36 15 -44 8 -9 15 -11 15 -5 0 15 27 14 33
-1 4 -10 6 -10 6 0 1 6 14 12 30 12 16 0 32 -6 34 -12 4 -10 6 -10 6 0 1 6 6
12 11 12 6 0 10 -23 10 -50 0 -45 -3 -52 -25 -60 -27 -10 -34 -30 -11 -30 23
0 46 47 46 95 0 25 5 45 10 45 6 0 10 -6 10 -12 0 -9 4 -8 10 2 9 13 11 13 20
0 6 -10 10 -11 10 -2 0 6 7 12 15 12 11 0 15 11 15 36 l0 37 55 -6 c42 -4 55
-2 55 8 0 10 -13 12 -55 8 -47 -5 -55 -3 -55 11 0 9 6 16 13 16 8 0 7 4 -3 10
-13 9 -13 11 0 20 10 6 11 10 3 10 -7 0 -13 6 -13 14 0 8 6 17 13 19 10 4 10
6 0 6 -23 2 -14 29 18 55 17 14 27 26 23 26 -4 0 -18 -10 -31 -22 -13 -12 -23
-16 -23 -10 0 7 -6 12 -14 12 -8 0 -17 8 -19 18 -4 16 -5 16 -6 0 0 -10 -6
-18 -11 -18 -7 0 -10 22 -8 58 2 47 6 57 20 54 21 -3 34 16 19 31 -8 8 -16 5
-31 -11 -15 -16 -20 -35 -20 -77 0 -53 -13 -75 -23 -37 -4 16 -5 16 -6 0 0
-10 -5 -18 -11 -18 -14 0 -13 133 1 147 6 6 8 16 5 22 -8 13 -26 15 -27 4z
m14 -240 c-6 -16 -4 -16 16 1 21 19 21 19 15 1 -6 -14 -4 -16 7 -10 8 4 11 4
6 0 -19 -22 -66 -8 -52 15 10 16 15 11 8 -7z m3 -53 c0 -9 -5 -17 -11 -17 -6
0 -11 8 -11 17 0 9 5 17 11 17 6 0 11 -8 11 -17z m40 8 c5 -7 3 -8 -6 -3 -10
6 -12 4 -6 -11 5 -14 4 -16 -5 -7 -6 6 -8 16 -5 22 9 14 13 14 22 -1z m21 -10
c-3 -8 -6 -5 -6 6 -1 11 2 17 5 13 3 -3 4 -12 1 -19z m-110 -50 c-3 -8 -6 -5
-6 6 -1 11 2 17 5 13 3 -3 4 -12 1 -19z m90 -1 c-2 -6 -13 -11 -25 -12 -21 -2
-21 -1 -6 16 17 19 38 16 31 -4z"/>
<path d="M1080 1245 c0 -17 21 -20 36 -6 5 5 23 11 39 14 19 2 11 5 -22 6 -41
1 -53 -2 -53 -14z"/>
<path d="M1249 1188 l64 -66 -5 -86 c-3 -60 -1 -86 7 -86 8 0 10 26 7 88 l-4
87 -66 65 -67 65 64 -67z"/>
<path d="M1156 1193 c-4 -5 -13 -8 -19 -8 -7 0 -13 -8 -15 -17 -5 -26 25 -22
31 4 6 21 7 21 27 3 11 -10 20 -24 20 -32 0 -7 9 -13 20 -13 25 0 26 18 3 27
-10 3 -27 14 -39 25 -11 10 -24 15 -28 11z"/>
<path d="M524 1169 c-8 -14 11 -33 25 -25 6 4 11 11 11 16 0 13 -29 20 -36 9z"/>
<path d="M581 1156 c-12 -14 -5 -26 16 -26 15 0 18 26 4 34 -5 3 -14 0 -20 -8z"/>
<path d="M443 1138 c-24 -26 -39 -83 -25 -92 5 -3 15 1 21 8 8 10 9 16 1 21
-21 13 -10 46 23 65 18 11 25 20 16 20 -8 0 -25 -10 -36 -22z"/>
<path d="M1007 1145 c-8 -18 11 -31 25 -17 11 11 3 32 -12 32 -4 0 -10 -7 -13
-15z"/>
<path d="M641 1126 c-12 -14 -5 -26 16 -26 15 0 18 26 4 34 -5 3 -14 0 -20 -8z"/>
<path d="M1259 1106 c-14 -12 -24 -27 -21 -34 5 -15 32 -16 32 -1 0 7 8 18 18
25 11 8 14 16 7 23 -7 6 -19 2 -36 -13z"/>
<path d="M598 1103 c7 -3 16 -2 19 1 4 3 -2 6 -13 5 -11 0 -14 -3 -6 -6z"/>
<path d="M1133 1103 c20 -2 54 -2 75 0 20 2 3 4 -38 4 -41 0 -58 -2 -37 -4z"/>
<path d="M560 1085 c0 -8 2 -15 4 -15 2 0 6 7 10 15 3 8 1 15 -4 15 -6 0 -10
-7 -10 -15z"/>
<path d="M1115 1080 c-11 -19 6 -29 36 -23 l31 6 -2 -79 c-3 -100 -2 -100 12
-86 18 18 27 15 38 -14 10 -25 30 -29 38 -6 2 7 -8 16 -22 22 -25 9 -26 13
-28 97 l-2 88 -3 -83 c-5 -100 -23 -102 -23 -1 0 62 -2 69 -19 69 -11 0 -23 5
-26 10 -3 6 -10 10 -15 10 -5 0 -12 -4 -15 -10z"/>
<path d="M1079 1073 c-1 -4 -2 -30 -3 -58 -1 -27 -4 -57 -6 -65 -3 -8 1 -15 9
-15 10 0 14 18 15 68 1 38 -2 71 -6 73 -4 3 -9 2 -9 -3z"/>
<path d="M620 1041 c-14 -27 -13 -41 5 -41 8 0 15 -6 15 -14 0 -8 10 -16 22
-18 16 -2 25 -12 29 -33 4 -19 7 -23 8 -9 2 31 -22 74 -41 74 -10 0 -18 4 -18
9 0 5 -3 16 -6 25 -4 11 3 16 33 19 l38 4 -37 1 c-28 2 -40 -3 -48 -17z"/>
<path d="M723 1053 c9 -2 23 -2 30 0 6 3 -1 5 -18 5 -16 0 -22 -2 -12 -5z"/>
<path d="M494 1039 c-10 -17 13 -36 27 -22 12 12 4 33 -11 33 -5 0 -12 -5 -16
-11z"/>
<path d="M551 1029 c0 -15 6 -32 14 -39 8 -7 15 -21 15 -31 0 -11 6 -19 14
-19 27 0 25 17 -4 38 -16 12 -30 34 -33 49 l-4 28 -2 -26z"/>
<path d="M1254 1029 c-10 -17 13 -36 27 -22 12 12 4 33 -11 33 -5 0 -12 -5
-16 -11z"/>
<path d="M418 1013 c-17 -19 -30 -110 -18 -118 4 -3 13 2 19 9 8 10 9 16 1 21
-14 9 -13 70 3 83 6 5 21 12 32 15 19 4 19 5 -1 6 -11 0 -28 -7 -36 -16z"/>
<path d="M1340 1006 c0 -7 9 -16 20 -19 17 -4 20 -14 20 -63 0 -40 -5 -64 -17
-78 -18 -21 -18 -21 5 -2 17 15 22 30 22 71 0 28 -6 63 -12 78 -14 28 -38 37
-38 13z"/>
<path d="M458 963 c-3 -4 -2 -44 1 -88 l5 -80 7 80 c5 71 -1 112 -13 88z"/>
<path d="M604 909 c-10 -17 14 -35 28 -21 7 7 21 12 32 12 27 0 17 6 -21 13
-19 4 -35 2 -39 -4z"/>
<path d="M510 875 c0 -8 5 -15 11 -15 6 0 25 -11 43 -25 18 -14 42 -25 54 -25
29 0 53 -11 47 -21 -6 -9 44 -114 51 -107 2 3 -7 26 -22 51 l-26 47 37 44 c20
25 42 47 48 50 9 3 9 5 0 5 -6 1 -25 -15 -41 -35 -24 -28 -31 -32 -36 -19 -4
12 -10 14 -25 5 -11 -5 -28 -10 -39 -10 -20 0 -62 39 -62 58 0 7 -9 12 -20 12
-11 0 -20 -7 -20 -15z"/>
<path d="M1096 875 c-7 -19 13 -30 27 -16 18 18 50 12 82 -14 27 -22 29 -27
17 -45 -10 -17 -10 -21 3 -26 22 -9 27 -1 19 30 -3 15 -20 37 -38 50 -38 29
-102 41 -110 21z"/>
<path d="M1062 842 c-2 -30 5 -54 23 -82 14 -22 25 -46 25 -55 0 -8 7 -15 15
-15 18 0 20 26 2 37 -27 17 -56 71 -60 114 l-4 44 -1 -43z"/>
<path d="M1270 836 c0 -20 13 -27 30 -15 13 8 13 10 0 19 -21 14 -30 12 -30
-4z"/>
<path d="M739 838 c0 -2 -2 -29 -3 -60 -2 -41 1 -58 10 -58 18 0 27 17 13 25
-7 5 -9 23 -4 51 4 29 2 44 -4 44 -6 0 -11 -1 -12 -2z"/>
<path d="M1130 807 c0 -7 9 -18 20 -25 18 -11 20 -24 22 -110 l2 -97 3 94 c2
56 0 98 -7 105 -5 5 -10 18 -10 28 0 10 -7 18 -15 18 -8 0 -15 -6 -15 -13z"/>
<path d="M523 803 c40 -4 49 -8 58 -29 9 -25 29 -29 36 -7 6 18 -57 43 -101
41 -40 -2 -40 -2 7 -5z"/>
<path d="M1304 793 c-11 -29 -56 -73 -77 -73 -10 0 -17 -5 -15 -12 6 -18 38
-22 38 -6 0 17 47 62 73 72 10 3 17 11 15 18 -7 20 -28 21 -34 1z"/>
<path d="M985 791 c-3 -5 -1 -12 5 -16 22 -14 10 -54 -25 -81 -25 -19 -33 -30
-25 -38 13 -13 69 50 70 79 0 11 3 30 6 43 5 16 2 22 -9 22 -9 0 -18 -4 -22
-9z"/>
<path d="M843 780 c-15 -6 -21 -15 -17 -25 8 -21 25 -15 35 13 5 12 7 22 6 21
-1 0 -12 -4 -24 -9z"/>
<path d="M1047 708 c5 -45 12 -59 46 -90 44 -41 57 -46 57 -23 0 8 -8 15 -17
15 -10 1 -31 11 -47 24 -27 23 -29 28 -23 75 5 40 3 51 -8 51 -11 0 -13 -11
-8 -52z"/>
<path d="M805 740 c-7 -12 2 -30 16 -30 16 0 79 -54 79 -67 0 -14 22 -18 33
-6 9 9 -13 34 -24 27 -5 -3 -29 16 -53 41 -25 25 -47 41 -51 35z"/>
<path d="M764 699 c-10 -17 13 -36 27 -22 12 12 4 33 -11 33 -5 0 -12 -5 -16
-11z"/>
<path d="M1216 600 c0 -91 18 -91 18 0 1 41 -3 70 -9 70 -6 0 -10 -29 -9 -70z"/>
<path d="M1172 545 c-2 -33 24 -79 39 -70 16 11 9 35 -10 35 -15 0 -21 8 -24
33 l-4 32 -1 -30z"/>
<path d="M785 469 c-4 -6 -4 -13 0 -17 3 -3 10 0 14 7 5 8 11 9 15 3 3 -5 -3
-17 -14 -27 -28 -25 -25 -35 11 -35 18 0 28 4 24 10 -4 6 -11 8 -16 5 -13 -9
-11 9 2 22 7 7 9 19 6 27 -7 18 -33 21 -42 5z"/>
<path d="M855 466 c-3 -9 -7 -22 -9 -30 -6 -19 20 -40 40 -32 22 8 15 70 -9
74 -9 2 -19 -4 -22 -12z m25 -32 c0 -14 -4 -23 -10 -19 -5 3 -10 15 -10 26 0
10 5 19 10 19 6 0 10 -12 10 -26z"/>
<path d="M928 473 c-10 -2 -18 -9 -18 -14 0 -6 5 -7 10 -4 6 4 10 -7 10 -24 0
-17 5 -31 10 -31 6 0 10 18 10 40 0 22 -1 39 -2 39 -2 -1 -11 -3 -20 -6z"/>
<path d="M986 464 c-27 -27 -13 -69 20 -62 27 5 31 38 5 45 -20 5 -20 6 -4 19
10 7 13 14 6 14 -6 0 -19 -7 -27 -16z m24 -39 c0 -8 -4 -15 -10 -15 -5 0 -10
7 -10 15 0 8 5 15 10 15 6 0 10 -7 10 -15z"/>
<path d="M295 1333 c-26 -25 15 -77 57 -71 28 4 35 33 13 58 -23 25 -53 31
-70 13z"/>
<path d="M1530 733 c0 -25 12 -39 38 -47 30 -10 59 1 65 23 3 14 -4 21 -33 30
-52 15 -70 14 -70 -6z"/>
<path d="M289 575 c-34 -18 -44 -44 -25 -64 32 -31 103 19 80 56 -14 23 -25
25 -55 8z"/>
</g>
</svg>
