<?xml version="1.0" standalone="no"?>
<!DOCTYPE svg PUBLIC "-//W3C//DTD SVG 20010904//EN"
 "http://www.w3.org/TR/2001/REC-SVG-20010904/DTD/svg10.dtd">
<svg version="1.0" xmlns="http://www.w3.org/2000/svg"
 width="672.000000pt" height="672.000000pt" viewBox="0 0 672.000000 672.000000"
 preserveAspectRatio="xMidYMid meet">

<g transform="translate(0.000000,672.000000) scale(0.100000,-0.100000)"
fill="#000000" stroke="none">
<path d="M3170 6664 c-514 -44 -879 -142 -1289 -349 -562 -282 -1034 -720
-1358 -1260 -524 -872 -616 -1948 -249 -2889 174 -444 405 -796 751 -1141 304
-305 592 -506 966 -677 306 -140 644 -235 989 -279 141 -18 620 -18 760 0 633
81 1192 316 1690 709 122 97 415 390 512 512 248 314 429 644 556 1015 69 200
117 417 154 685 17 125 17 626 0 735 -38 241 -46 289 -68 380 -92 397 -253
762 -485 1105 -542 799 -1389 1316 -2349 1435 -120 15 -487 27 -580 19z m580
-89 c615 -79 1163 -312 1644 -697 139 -112 402 -379 510 -518 145 -186 261
-372 361 -575 165 -334 258 -639 311 -1015 21 -152 29 -507 15 -674 -46 -546
-226 -1068 -524 -1516 -476 -716 -1204 -1215 -2027 -1390 -267 -57 -349 -65
-680 -65 -325 0 -413 8 -660 60 -973 206 -1794 843 -2243 1740 -442 886 -446
1944 -11 2840 163 337 364 616 638 890 540 539 1219 854 2011 935 129 13 508
4 655 -15z"/>
<path d="M3045 6509 c-677 -69 -1340 -369 -1827 -827 -414 -390 -694 -823
-863 -1337 -109 -331 -155 -624 -155 -989 0 -299 27 -519 100 -801 139 -535
423 -1029 825 -1430 410 -411 881 -682 1440 -831 266 -70 490 -98 795 -98 353
0 604 37 925 135 963 295 1736 1040 2068 1996 277 797 218 1687 -163 2444
-311 619 -803 1110 -1419 1417 -316 157 -604 249 -956 304 -149 23 -611 33
-770 17z m475 -117 c62 -31 70 -62 69 -272 0 -102 -4 -220 -8 -264 -8 -69 -12
-82 -40 -109 -28 -29 -38 -32 -103 -35 -64 -3 -77 -1 -108 20 -58 39 -63 69
-56 341 7 280 14 303 91 329 40 13 120 8 155 -10z m-451 -49 c13 -46 151 -613
151 -617 0 -2 -30 -7 -66 -11 -48 -5 -69 -3 -74 5 -4 7 -13 45 -20 86 -10 59
-16 74 -31 74 -45 0 -49 -8 -49 -100 l0 -87 -56 -7 c-31 -4 -58 -5 -60 -3 -2
1 1 104 6 227 5 124 10 276 11 338 1 106 3 112 23 117 31 7 76 12 118 14 35 1
38 -1 47 -36z m-435 -80 c7 -27 50 -168 95 -314 45 -147 81 -271 81 -276 0 -8
-141 -56 -146 -50 -1 1 -33 61 -70 132 -89 170 -144 271 -144 265 0 -3 29 -99
65 -215 35 -115 63 -210 62 -212 -7 -6 -97 -26 -101 -22 -4 4 -101 316 -192
621 -4 13 12 22 82 43 78 24 87 25 97 10 7 -9 48 -92 92 -184 44 -93 81 -168
82 -167 1 0 -23 75 -53 166 -69 209 -70 219 -24 236 54 19 58 17 74 -33z
m1702 -8 c61 -19 90 -43 110 -90 14 -34 14 -42 -7 -111 -12 -41 -25 -77 -29
-79 -4 -3 -35 5 -68 16 l-60 20 19 56 c23 68 24 93 3 93 -18 0 -44 -58 -44
-99 0 -17 18 -72 41 -123 22 -51 41 -106 41 -123 2 -48 -43 -173 -73 -206 -23
-25 -34 -29 -81 -29 -99 1 -188 65 -188 135 0 31 40 158 54 172 5 5 126 -26
126 -32 0 -1 -11 -34 -25 -74 -25 -74 -25 -91 0 -91 16 0 45 70 45 109 0 15
-18 72 -41 126 -34 83 -40 107 -37 149 6 76 47 158 89 179 42 21 62 21 125 2z
m533 -251 c7 -6 -31 -84 -41 -84 -5 0 -23 7 -39 16 -17 8 -32 14 -33 12 -2 -2
-61 -115 -131 -253 -70 -137 -129 -251 -130 -253 -5 -6 -115 52 -115 61 0 5
57 121 126 258 70 137 125 251 123 253 -2 2 -19 11 -37 20 -18 10 -32 20 -30
24 2 4 12 24 22 44 l19 37 131 -66 c72 -36 133 -67 135 -69z m-2628 -165 c99
-149 183 -277 185 -284 4 -9 -15 -24 -54 -44 l-60 -30 -47 74 c-25 41 -49 75
-51 75 -5 0 -45 -19 -52 -25 -1 -1 11 -35 28 -75 16 -40 30 -78 30 -84 0 -11
-80 -56 -100 -56 -8 0 -194 556 -206 617 -5 26 0 31 63 65 37 20 71 37 75 37
4 1 89 -121 189 -270z m2889 -9 c33 -22 60 -43 60 -46 0 -3 -37 -76 -81 -162
-45 -87 -114 -219 -153 -294 -39 -76 -74 -138 -79 -138 -13 0 -107 65 -107 74
0 5 18 41 41 80 l41 71 -22 17 c-12 10 -26 18 -30 18 -4 0 -26 -24 -50 -54
-62 -82 -61 -81 -114 -45 -26 17 -46 35 -44 40 8 24 455 489 466 484 7 -2 39
-23 72 -45z m-3406 -5 c36 -24 276 -358 293 -408 20 -57 4 -97 -60 -150 -60
-50 -124 -97 -130 -97 -13 0 -399 542 -391 549 25 23 154 112 175 121 31 13
81 6 113 -15z m3734 -264 l102 -95 -35 -35 -35 -35 -28 27 c-15 15 -30 27 -33
27 -3 0 -92 -95 -199 -211 l-193 -210 -48 47 -49 48 23 25 c12 14 83 91 157
171 74 79 152 163 172 185 l37 40 -29 30 -30 29 32 33 c17 18 36 29 42 26 6
-4 57 -50 114 -102z m-1888 38 c522 -47 1027 -288 1399 -669 318 -325 521
-716 607 -1169 32 -170 44 -468 24 -642 -46 -422 -213 -827 -478 -1163 -72
-91 -267 -287 -358 -359 -341 -268 -730 -427 -1173 -478 -150 -17 -454 -7
-606 20 -464 82 -878 295 -1206 621 -337 335 -552 748 -636 1220 -23 127 -26
173 -26 370 -1 190 3 246 22 360 63 373 200 694 424 997 101 136 330 365 465
463 451 330 990 480 1542 429z m-2036 -253 l237 -230 -57 -57 -56 -57 -137 90
c-75 50 -165 110 -201 135 -55 38 -39 19 108 -124 l174 -168 -40 -38 -39 -38
-164 158 c-90 87 -200 193 -244 235 l-80 77 66 67 67 67 128 -89 c71 -48 149
-104 174 -123 25 -20 -12 19 -82 87 -69 68 -138 132 -152 143 l-26 21 31 39
c17 22 37 39 44 37 7 -2 119 -106 249 -232z m4208 -88 c87 -112 85 -106 52
-134 -16 -13 -34 -23 -41 -24 -6 0 -26 18 -43 40 l-32 40 -59 -46 -59 -46 30
-38 c16 -21 30 -42 30 -48 0 -9 -63 -62 -73 -62 -2 0 -17 18 -32 40 -17 25
-34 39 -42 36 -23 -9 -163 -120 -163 -129 0 -4 15 -26 32 -48 l33 -41 -35 -29
c-19 -15 -39 -28 -45 -28 -10 0 -142 169 -147 188 -3 10 500 409 518 410 6 1
40 -36 76 -81z m-4532 -254 c146 -102 269 -189 273 -194 12 -11 -63 -112 -78
-106 -7 2 -132 88 -279 191 l-266 186 38 54 c20 30 39 54 42 54 3 1 124 -83
270 -185z m-193 -170 c131 -69 264 -140 295 -157 l56 -31 -25 -50 c-14 -28
-27 -53 -29 -55 -2 -3 -153 75 -324 167 -84 45 -76 38 115 -108 88 -67 161
-126 163 -130 4 -11 -34 -87 -48 -95 -5 -3 -102 25 -215 63 -113 37 -202 65
-197 61 4 -3 86 -48 182 -98 96 -51 179 -96 184 -101 5 -5 -2 -28 -18 -53
l-26 -45 -292 156 c-161 85 -294 156 -296 158 -5 3 76 162 85 167 7 4 260 -89
398 -146 31 -13 35 -13 20 -2 -261 191 -354 261 -355 267 0 8 81 158 86 158 2
0 111 -57 241 -126z m5122 -225 c11 -29 21 -57 21 -63 0 -6 -116 -61 -257
-121 -180 -77 -259 -116 -261 -128 -2 -11 3 -17 15 -17 10 0 128 47 263 105
221 95 270 113 270 101 0 -2 11 -28 24 -58 l25 -55 -266 -114 c-285 -122 -319
-130 -370 -93 -67 50 -99 168 -61 226 10 15 46 40 80 57 63 31 477 209 489
210 4 1 16 -22 28 -50z m164 -476 c9 -43 17 -83 17 -89 0 -11 -273 -137 -325
-150 -14 -4 -24 -8 -22 -10 2 -2 82 16 177 41 95 25 178 45 185 45 6 0 16 -22
21 -50 8 -39 8 -50 -3 -54 -17 -7 -623 -156 -633 -156 -8 0 -40 110 -40 137 0
14 50 40 199 108 110 49 198 91 197 92 -1 2 -93 -20 -205 -47 -111 -28 -206
-50 -210 -50 -11 0 -34 90 -26 99 8 7 602 159 630 160 17 1 23 -11 38 -76z
m-5580 -274 l308 -43 -5 -38 c-3 -21 -9 -55 -12 -77 l-5 -39 -57 -5 c-31 -4
-142 -10 -247 -14 -104 -4 -174 -9 -155 -11 61 -5 441 -60 445 -63 4 -5 -10
-98 -16 -102 -2 -2 -150 17 -329 42 l-325 47 1 55 c1 30 4 71 8 91 l6 35 77 7
c42 3 123 6 181 6 58 0 103 2 101 4 -2 2 -80 14 -174 26 -93 12 -172 24 -174
25 -1 2 0 27 4 55 7 50 8 52 34 47 14 -3 165 -24 334 -48z m5671 -225 c4 -37
5 -68 4 -70 -5 -4 -662 -61 -667 -58 -8 7 -13 134 -5 135 17 0 649 57 655 58
3 1 9 -29 13 -65z m6 -263 l0 -69 -32 -5 c-18 -3 -121 -9 -228 -13 -107 -3
-202 -10 -210 -15 -10 -6 -4 -9 20 -9 19 0 125 -11 235 -25 110 -14 203 -25
208 -25 4 0 7 -27 7 -60 0 -33 -4 -60 -8 -60 -4 0 -153 23 -331 50 -178 28
-327 50 -333 50 -7 0 -10 171 -4 181 1 0 147 16 326 34 179 18 331 33 338 34
8 1 12 -19 12 -68z m-5409 22 c0 -10 2 -37 4 -61 4 -55 -9 -62 -122 -63 -127
-1 -177 -10 -181 -33 -4 -18 4 -18 150 -15 l153 4 3 -67 3 -68 -84 0 c-46 0
-199 -3 -340 -7 l-257 -6 0 107 c0 165 26 204 143 213 80 7 132 -13 151 -58
l13 -32 12 36 c7 19 20 39 29 43 15 7 69 11 285 22 29 2 37 -2 38 -15z m4945
-368 c120 -19 266 -43 324 -51 58 -9 108 -19 112 -23 4 -4 -1 -58 -12 -121
-11 -63 -20 -116 -20 -117 0 -5 -45 -3 -68 4 -22 5 -23 9 -17 63 l7 57 -54 6
c-98 12 -97 13 -104 -43 -7 -54 -11 -56 -73 -44 -31 6 -31 7 -28 62 l2 56
-103 16 c-56 9 -104 14 -107 12 -3 -3 -8 -27 -11 -55 l-7 -49 -50 5 c-27 4
-51 8 -52 9 -3 3 37 248 40 248 1 0 100 -16 221 -35z m-4922 -22 c16 -78 37
-216 33 -219 -5 -5 -621 -104 -646 -104 -14 0 -20 19 -34 108 -23 144 -24 138
24 146 23 4 44 5 46 2 2 -2 8 -26 12 -53 l7 -48 44 2 c25 1 60 5 78 8 31 6 32
7 26 43 -3 20 -8 45 -10 54 -5 17 -2 19 73 34 19 4 22 -2 30 -49 l9 -52 39 1
c22 0 72 6 111 13 l71 12 -8 47 c-4 26 -8 52 -8 59 -1 10 18 15 81 21 11 1 18
-8 22 -25z m4749 -289 c56 -20 194 -67 307 -106 113 -38 209 -73 213 -77 15
-14 -55 -193 -89 -231 -27 -29 -38 -34 -71 -33 -56 2 -149 40 -173 70 -11 14
-20 40 -20 57 l-1 31 -17 -27 c-28 -46 -64 -46 -204 1 -68 23 -131 41 -141 41
-21 0 -21 1 5 72 l21 60 36 -7 c20 -4 83 -22 139 -42 94 -32 105 -34 119 -20
14 14 13 17 -18 30 -19 7 -84 30 -145 51 l-112 37 21 64 c12 36 23 65 24 65 2
0 50 -16 106 -36z m-4644 -122 c10 -34 16 -64 12 -66 -3 -2 -53 -18 -111 -35
-470 -139 -435 -123 -416 -192 7 -24 4 -27 -36 -37 -23 -6 -46 -8 -49 -4 -8 8
-91 283 -87 286 12 8 83 24 89 20 5 -2 11 -20 15 -39 3 -19 9 -35 13 -35 3 0
128 38 276 83 149 46 271 83 272 82 1 0 11 -29 22 -63z m105 -252 c71 -63 94
-160 53 -224 -14 -21 -143 -96 -166 -96 -10 0 -61 90 -61 108 0 4 29 24 65 43
42 22 65 40 65 52 0 23 -16 21 -75 -11 -49 -26 -51 -30 -93 -137 -24 -61 -53
-120 -65 -133 -11 -12 -50 -36 -86 -53 -98 -47 -156 -31 -207 56 -32 55 -37
127 -10 167 9 14 48 42 86 62 l69 37 31 -60 30 -61 -59 -30 c-65 -33 -79 -46
-62 -63 8 -8 24 -4 60 13 54 25 56 28 115 186 31 83 39 91 130 139 87 45 132
47 180 5z m4464 -18 l73 -38 -26 -49 c-15 -28 -30 -54 -35 -58 -4 -5 -35 5
-68 22 -67 34 -92 38 -92 17 0 -18 81 -66 112 -66 13 0 66 11 118 25 52 14
110 25 129 25 40 0 144 -53 171 -88 79 -100 -38 -287 -158 -253 -15 5 -50 21
-78 37 l-52 29 29 57 c16 32 32 58 35 58 2 0 31 -14 64 -31 59 -30 80 -31 80
-4 0 19 -71 55 -108 55 -15 0 -66 -11 -113 -25 -46 -13 -101 -25 -122 -25 -37
0 -114 32 -171 73 -71 50 -68 153 9 233 37 39 46 44 86 44 30 -1 66 -12 117
-38z m-4264 -333 c37 -51 69 -97 71 -103 2 -6 -46 -47 -108 -90 -62 -44 -183
-131 -270 -194 -87 -63 -160 -112 -163 -110 -3 3 -36 48 -74 99 l-70 94 33 27
c17 15 35 28 38 28 4 0 22 -20 41 -44 l34 -44 62 44 61 45 -32 45 -32 46 30
24 c17 13 34 24 40 24 5 0 25 -18 45 -39 l35 -40 87 65 87 65 -32 45 -32 46
35 29 c19 16 37 29 41 29 3 0 36 -41 73 -91z m4229 -110 c136 -92 249 -170
250 -172 4 -11 -58 -107 -69 -107 -7 0 -70 39 -140 86 -150 101 -407 276 -413
280 -2 2 13 29 33 60 l37 56 27 -18 c15 -10 139 -93 275 -185z m-439 -28 c3
-5 98 -89 211 -186 l206 -178 28 27 c34 33 41 33 74 -2 l26 -27 -96 -113 c-52
-61 -98 -112 -102 -112 -3 0 -22 14 -41 30 l-35 29 28 28 c15 16 27 32 27 35
0 5 -361 321 -417 365 -13 10 -9 19 27 62 43 51 54 58 64 42z m-3576 -127 c29
-26 52 -51 52 -57 0 -5 -19 -33 -43 -61 -24 -28 -83 -100 -132 -161 -48 -60
-95 -119 -104 -129 -9 -11 26 16 78 60 230 194 266 223 272 221 3 -1 30 -23
58 -49 l53 -48 -198 -252 c-108 -139 -203 -260 -210 -268 -12 -12 -20 -8 -59
30 -25 24 -45 48 -45 52 0 10 127 161 207 247 28 31 50 57 48 59 -2 2 -63 -47
-137 -108 -190 -160 -169 -151 -227 -99 -27 24 -49 47 -50 51 -1 7 123 165
222 283 38 45 42 52 16 29 -159 -143 -288 -254 -295 -254 -5 0 -25 17 -46 37
l-37 37 37 31 c135 116 476 395 482 395 4 0 30 -21 58 -46z m3612 -385 c58
-39 133 -90 167 -112 35 -23 61 -46 60 -51 -2 -6 -24 -28 -50 -49 l-46 -40
-72 59 c-39 33 -83 69 -98 81 -20 16 -8 -8 42 -84 l69 -105 -38 -39 c-44 -45
-56 -48 -72 -16 -125 250 -190 357 -270 446 l-85 94 49 43 49 44 95 -100 c62
-65 131 -124 200 -171z m-3215 -426 c31 -22 9 -42 -89 -78 -48 -19 -90 -36
-93 -38 -2 -3 18 -18 46 -34 28 -15 51 -32 51 -38 -1 -33 -19 -29 -98 17 -79
47 -83 51 -70 70 9 13 49 33 101 52 48 17 87 33 87 36 0 3 -18 15 -40 28 -37
21 -49 40 -33 55 6 6 98 -40 138 -70z m2810 -134 c24 -37 24 -39 6 -49 -28
-14 -28 -14 -51 30 -16 32 -34 47 -90 75 -78 39 -84 41 -76 20 3 -10 -5 -20
-24 -30 -17 -9 -30 -17 -30 -19 0 -2 18 -43 40 -90 37 -81 38 -86 20 -96 -10
-5 -21 -10 -23 -10 -2 0 -23 41 -46 90 l-42 91 -30 -18 c-26 -16 -31 -16 -39
-3 -15 24 -13 26 53 55 34 15 86 39 116 53 l53 26 39 -22 c21 -12 40 -22 43
-22 4 0 6 22 6 49 0 40 4 53 23 66 l22 15 3 -86 c2 -71 7 -92 27 -125z m-1171
124 c14 -99 18 -112 31 -107 7 3 15 -4 18 -16 3 -13 0 -23 -9 -27 -8 -3 -14
-16 -14 -29 0 -19 -5 -24 -25 -24 -19 0 -25 5 -25 21 0 20 -4 21 -49 15 -42
-6 -50 -4 -53 11 -5 21 76 189 94 196 24 10 26 7 32 -40z m-529 22 c0 -6 -6
-61 -14 -122 -14 -109 -15 -113 -39 -113 -24 0 -24 1 -18 63 4 34 10 73 13 86
5 22 4 23 -26 16 -26 -6 -31 -4 -31 13 0 12 11 24 30 32 16 7 35 19 41 27 13
15 44 14 44 -2z m172 -19 c26 -23 28 -29 28 -99 0 -66 -3 -79 -24 -101 -32
-34 -93 -36 -115 -4 -21 29 -20 35 5 41 12 3 22 0 26 -9 8 -20 41 -17 53 5 16
31 13 43 -9 31 -25 -13 -66 2 -80 29 -19 34 -13 80 14 106 31 32 66 32 102 1z
m180 0 c26 -23 28 -29 28 -104 0 -92 -17 -122 -67 -122 -44 0 -66 16 -78 58
-37 135 34 239 117 168z m-1319 -65 c15 -8 16 -23 10 -131 -3 -67 -9 -124 -11
-127 -3 -2 -15 0 -26 6 -16 9 -19 18 -15 40 6 26 3 30 -40 46 -44 17 -47 17
-65 1 -19 -18 -61 -15 -61 4 0 10 171 170 183 170 4 0 16 -4 25 -9z m2278
-172 c35 -86 40 -105 28 -112 -26 -15 -35 -3 -75 93 -42 104 -45 116 -26 123
24 10 32 -1 73 -104z m-2098 90 l32 -11 -7 -74 c-3 -41 -3 -74 -1 -74 3 0 21
23 39 52 19 28 37 56 40 61 5 7 80 -8 79 -16 -1 -1 -18 -51 -39 -112 -32 -92
-42 -109 -57 -107 -11 2 -21 5 -23 7 -2 2 8 38 22 79 14 42 24 76 23 76 -2 0
-22 -29 -45 -65 -33 -51 -48 -65 -67 -65 l-25 0 6 88 5 87 -26 -72 c-19 -53
-30 -73 -43 -73 -35 0 -36 -5 44 218 5 15 5 15 43 1z m1963 -58 c23 -18 23
-18 2 -29 -15 -8 -29 -8 -51 0 -27 10 -34 9 -51 -7 -25 -21 -27 -52 -7 -100
24 -57 106 -57 106 0 0 20 5 25 25 25 36 0 34 -43 -4 -81 -56 -56 -152 -31
-181 46 -20 53 -12 95 24 131 27 27 42 34 74 34 24 0 49 -7 63 -19z m-1625
-43 c23 -8 44 -24 53 -40 14 -25 14 -29 -5 -55 -16 -22 -19 -33 -11 -50 14
-31 0 -72 -29 -85 -19 -9 -41 -8 -100 6 -66 16 -75 21 -71 37 3 11 16 62 28
115 l23 96 37 -6 c21 -3 54 -12 75 -18z m1313 -117 c39 -54 71 -103 71 -110 0
-19 -47 -12 -61 10 -13 19 -18 20 -62 9 -42 -11 -47 -15 -47 -40 0 -20 -6 -29
-22 -33 -12 -4 -24 -4 -26 -2 -2 2 1 43 7 92 20 160 21 161 44 166 12 2 23 5
24 6 0 0 33 -43 72 -98z m-1063 68 c58 -15 84 -48 84 -106 0 -104 -71 -156
-167 -123 -86 30 -81 183 7 227 30 15 22 15 76 2z m797 -20 c12 -6 28 -19 35
-29 9 -15 7 -19 -14 -24 -14 -4 -33 0 -48 9 -25 17 -67 8 -82 -17 -12 -19 -5
-80 12 -105 23 -36 104 -30 104 8 0 13 -7 19 -24 19 -27 0 -44 17 -30 30 5 4
30 11 55 14 l46 7 7 -48 c6 -41 4 -50 -15 -65 -11 -10 -39 -23 -61 -29 -50
-13 -101 3 -130 41 -26 35 -27 119 -2 154 31 41 97 58 147 35z m-499 -123 c20
-63 36 -119 36 -125 0 -6 -11 -11 -25 -11 -20 0 -27 6 -31 30 -4 20 -13 30
-24 30 -10 0 -31 3 -47 6 -24 5 -31 2 -41 -20 -8 -18 -19 -26 -37 -26 -14 0
-25 3 -25 6 0 3 23 55 52 115 47 100 54 109 79 109 27 0 29 -5 63 -114z m270
92 c3 -13 6 -67 6 -120 0 -97 0 -98 -24 -98 -18 0 -35 16 -72 70 -26 39 -49
70 -51 70 -2 0 -2 -33 -1 -72 3 -69 2 -73 -19 -76 -22 -3 -23 0 -23 71 0 41
-3 95 -6 121 -7 46 -6 46 22 46 25 0 36 -11 76 -73 l48 -72 0 78 c0 69 2 77
19 77 11 0 21 -9 25 -22z"/>
<path d="M3417 6304 c-4 -4 -7 -117 -7 -251 0 -204 2 -243 14 -243 8 0 17 8
20 18 2 9 6 120 8 247 3 201 1 230 -12 233 -9 1 -19 0 -23 -4z"/>
<path d="M2972 6225 c0 -16 2 -22 5 -12 2 9 2 23 0 30 -3 6 -5 -1 -5 -18z"/>
<path d="M2981 6088 l-1 -108 25 0 c28 0 28 -5 -6 140 l-17 75 -1 -107z"/>
<path d="M2031 5935 c2 -5 24 -60 48 -122 39 -101 46 -111 62 -102 11 5 19 12
19 15 0 4 -23 45 -52 93 -53 88 -83 134 -77 116z"/>
<path d="M5017 5716 c-9 -13 -45 -58 -82 -101 -52 -61 -63 -80 -54 -91 6 -8
15 -14 19 -14 5 0 30 39 57 88 27 48 57 99 67 115 10 15 16 27 13 27 -2 0 -12
-11 -20 -24z"/>
<path d="M1600 5719 c0 -19 272 -390 284 -386 26 9 2 54 -118 220 -89 124
-133 177 -147 177 -10 0 -19 -5 -19 -11z"/>
<path d="M3374 5426 c-16 -19 -39 -48 -51 -66 -23 -35 -25 -34 -38 45 l-7 40
-29 -34 c-15 -19 -40 -67 -55 -107 -33 -92 -54 -114 -54 -58 -1 37 -1 38 -16
19 -32 -40 -64 -121 -64 -162 0 -30 7 -50 26 -72 l25 -30 -25 -7 c-32 -8 -32
-15 -1 -134 14 -52 25 -101 25 -107 0 -8 -15 -13 -40 -13 l-40 0 0 -59 0 -60
33 -3 c31 -3 32 -4 35 -55 l3 -53 -35 0 -36 0 0 -65 0 -65 48 0 48 0 21 -137
c11 -76 19 -141 17 -144 -2 -3 -38 1 -81 8 -146 26 -275 3 -353 -64 -34 -30
-41 -41 -38 -64 4 -28 3 -28 -51 -31 -48 -3 -56 -6 -59 -24 -2 -15 -12 -24
-32 -27 -16 -4 -31 -15 -34 -25 -4 -11 27 -112 75 -248 44 -126 96 -274 115
-329 74 -211 84 -234 107 -237 12 -2 47 7 77 19 83 33 247 63 343 63 l85 0 7
-29 c13 -62 57 -62 70 0 l7 29 85 0 c96 0 260 -30 343 -63 68 -27 95 -24 109
11 63 157 270 770 265 784 -3 10 -19 21 -34 25 -20 3 -30 12 -32 27 -3 18 -11
21 -59 24 -55 3 -55 3 -51 31 3 23 -3 36 -28 60 -70 66 -218 94 -363 68 -43
-7 -80 -11 -81 -8 -2 3 5 62 15 131 10 69 19 131 19 138 0 8 17 12 50 12 l50
0 0 65 0 65 -36 0 -35 0 3 53 c3 51 4 52 36 55 l32 3 0 60 0 59 -35 0 c-24 0
-35 5 -35 14 0 8 14 72 30 141 34 143 35 154 18 137 -19 -19 -30 -14 -18 8 33
62 -5 193 -77 262 l-34 33 7 -30 c4 -16 11 -40 15 -52 13 -37 -7 -27 -61 26
-46 46 -58 70 -75 154 -7 35 -17 34 -51 -7z m64 -132 c16 -31 78 -83 107 -90
14 -4 32 -1 40 6 12 10 17 7 26 -16 25 -65 9 -123 -41 -149 -40 -21 -45 -19
-26 10 23 36 20 37 -20 10 -50 -34 -64 -32 -64 8 -1 35 -49 136 -50 103 0 -36
-42 -108 -74 -127 -47 -29 -129 -43 -171 -29 -60 20 -91 86 -69 144 6 15 8 15
20 -1 13 -17 15 -17 34 7 11 14 34 59 51 100 48 116 69 128 69 40 0 -89 28
-77 92 39 l42 76 11 -55 c6 -30 17 -65 23 -76z m35 -330 c35 -13 51 -13 95 -3
69 16 78 8 63 -63 -7 -29 -16 -70 -22 -91 l-10 -37 -236 2 -237 3 -22 90 c-28
108 -18 123 66 93 27 -9 43 -8 84 5 93 30 138 30 219 1z m195 -286 l-3 -43
-305 0 -305 0 -3 43 -3 42 311 0 311 0 -3 -42z m-497 -78 c1 -11 1 -29 1 -40
0 -46 -2 -50 -32 -50 -30 0 -30 1 -30 55 0 54 0 55 30 55 23 0 30 -5 31 -20z
m81 8 c4 -11 4 -42 -1 -85 0 -7 -12 -13 -26 -13 -24 0 -25 3 -25 55 0 51 2 55
24 55 13 0 26 -6 28 -12z m78 -43 c0 -54 0 -55 -30 -55 -30 0 -30 1 -30 55 0
54 0 55 30 55 30 0 30 -1 30 -55z m120 0 c0 -54 0 -55 -30 -55 -30 0 -30 1
-30 55 0 54 0 55 30 55 30 0 30 -1 30 -55z m70 0 c0 -52 -1 -55 -25 -55 -20 0
-25 6 -30 34 -10 49 1 76 31 76 22 0 24 -3 24 -55z m90 0 l0 -55 -35 0 -35 0
0 55 0 55 35 0 35 0 0 -55z m58 -122 l3 -43 -310 0 -311 0 0 38 c0 21 3 42 7
45 4 4 142 6 307 5 l301 -3 3 -42z m-108 -102 c0 -18 -128 -910 -151 -1053 -7
-44 -17 -72 -31 -85 -19 -17 -20 -17 -39 5 -10 13 -21 38 -24 55 -14 83 -155
1060 -155 1077 0 19 8 20 200 20 189 0 200 -1 200 -19z m-456 -281 c39 -6 71
-11 72 -13 1 -1 14 -78 28 -172 14 -93 37 -244 51 -335 14 -91 28 -181 30
-200 l6 -35 -93 -2 c-51 -2 -129 -12 -173 -22 -44 -11 -80 -19 -81 -18 -1 1
-47 160 -103 352 -56 193 -104 357 -107 367 -3 12 9 23 48 42 86 42 196 54
322 36z m783 -15 c58 -17 93 -41 93 -63 0 -12 -197 -704 -204 -719 -1 -1 -37
7 -81 18 -44 10 -122 20 -172 22 -51 1 -93 6 -93 10 0 16 110 730 113 733 1 2
32 7 67 13 77 11 216 4 277 -14z m-1183 -133 c3 -5 50 -161 105 -347 55 -186
102 -339 104 -341 2 -2 39 5 83 16 43 12 130 24 192 27 106 6 112 5 112 -13 0
-17 -9 -19 -103 -21 -77 -1 -130 -9 -217 -31 -63 -17 -116 -30 -117 -29 -3 3
-233 735 -233 741 0 9 68 7 74 -2z m1382 -9 c-12 -43 -228 -728 -230 -730 0
-1 -53 12 -116 29 -86 22 -141 30 -217 31 -94 2 -103 4 -103 21 0 18 6 19 113
13 61 -3 148 -15 191 -27 44 -11 80 -19 82 -17 3 2 135 443 180 600 l28 97 39
0 c32 0 37 -3 33 -17z m-1371 -402 c117 -326 132 -361 150 -357 11 2 54 14 95
26 143 40 350 50 350 17 0 -8 -28 -13 -93 -14 -100 -2 -212 -22 -320 -56 -41
-13 -70 -17 -75 -11 -5 5 -71 175 -146 378 -110 294 -136 370 -125 377 8 5 18
7 24 6 5 -2 68 -167 140 -366z m1454 360 c17 -11 29 25 -140 -423 l-131 -346
-52 18 c-109 37 -241 62 -338 64 -89 1 -98 3 -98 20 0 18 6 19 118 13 79 -5
150 -15 213 -32 52 -15 103 -28 114 -31 18 -5 26 12 74 148 80 228 200 559
207 569 7 11 15 11 33 0z"/>
<path d="M3226 4322 c-4 -7 96 -933 108 -997 6 -36 6 503 -1 758 l-6 247 -48
0 c-26 0 -50 -4 -53 -8z"/>
<path d="M3385 4048 c-3 -156 -5 -386 -3 -513 l3 -230 53 480 c29 264 54 494
55 510 2 29 1 30 -49 33 l-52 3 -7 -283z"/>
<path d="M4360 5179 c-96 -43 -266 -120 -377 -171 l-203 -92 0 -47 0 -48 76
35 c42 20 170 80 285 134 115 54 209 97 209 95 0 -2 -24 -50 -54 -107 -97
-185 -148 -357 -166 -558 -9 -108 -2 -270 16 -357 6 -30 9 -32 38 -26 17 3 33
8 35 10 3 2 5 99 6 216 0 184 4 225 24 311 52 225 152 456 285 659 10 15 14
27 10 26 -5 0 -88 -36 -184 -80z"/>
<path d="M2264 4654 c-68 -33 -85 -120 -33 -179 17 -19 37 -35 45 -35 7 0 25
20 40 46 26 45 26 45 9 84 -9 21 -20 52 -24 69 -6 30 -6 30 -37 15z"/>
<path d="M4427 4616 c-32 -88 -32 -109 -2 -144 15 -18 31 -32 35 -32 5 0 22
12 39 26 52 44 51 123 -2 172 -41 36 -51 33 -70 -22z"/>
<path d="M2723 4442 c-186 -84 -193 -88 -203 -122 -21 -73 -24 -74 200 24
l209 91 1 48 c0 26 -3 47 -7 46 -5 0 -95 -40 -200 -87z"/>
<path d="M2060 4431 c0 -34 28 -79 58 -94 15 -8 47 -17 72 -21 24 -4 49 -11
56 -17 8 -7 14 -7 18 0 4 5 28 13 54 17 68 9 109 38 123 85 7 21 10 41 8 44
-3 2 -21 0 -40 -5 -18 -6 -53 -15 -77 -20 -31 -8 -48 -20 -61 -42 -18 -28 -19
-29 -26 -9 -9 29 -40 47 -100 59 -28 6 -58 14 -68 17 -13 6 -17 2 -17 -14z"/>
<path d="M4290 4421 c0 -56 39 -87 135 -107 75 -16 181 4 215 41 26 28 46 99
25 91 -7 -2 -41 -10 -74 -17 -48 -9 -67 -18 -88 -43 -18 -21 -28 -27 -31 -17
-9 27 -44 46 -112 62 l-70 16 0 -26z"/>
<path d="M2060 4287 c0 -32 22 -74 48 -89 15 -9 54 -23 87 -31 56 -14 66 -14
129 3 37 10 78 28 91 40 22 21 43 76 33 86 -3 2 -36 -3 -74 -11 -52 -11 -75
-21 -94 -42 l-26 -28 -22 27 c-16 19 -38 30 -80 38 -31 6 -65 14 -74 16 -11 3
-18 0 -18 -9z"/>
<path d="M4290 4280 c0 -38 28 -76 67 -92 62 -25 124 -37 152 -28 14 5 43 11
63 15 50 8 87 41 97 88 5 20 6 37 2 37 -3 -1 -34 -7 -68 -14 -69 -15 -113 -39
-113 -61 0 -8 -4 -15 -10 -15 -5 0 -10 7 -10 15 0 21 -41 45 -107 60 -75 18
-73 18 -73 -5z"/>
<path d="M2050 4142 c0 -63 36 -96 129 -118 52 -12 70 -12 119 0 65 15 92 27
111 50 14 16 33 86 24 86 -3 0 -24 -5 -47 -11 -22 -6 -57 -15 -77 -20 -22 -5
-41 -18 -49 -34 -14 -26 -30 -33 -30 -14 0 9 -37 49 -45 49 -11 0 -104 20
-117 25 -14 5 -18 2 -18 -13z"/>
<path d="M4300 4148 c0 -33 23 -78 47 -94 15 -9 54 -22 87 -29 76 -16 178 3
218 40 23 21 46 80 36 90 -2 2 -37 -4 -78 -14 -56 -14 -80 -26 -94 -44 l-19
-26 -26 28 c-19 21 -44 32 -86 41 -33 7 -65 15 -72 17 -7 3 -13 -1 -13 -9z"/>
<path d="M1683 3971 c-116 -53 -215 -99 -219 -103 -4 -5 8 -8 27 -8 106 -1
265 -68 397 -168 l83 -63 -3 58 -3 57 -76 52 c-42 28 -101 61 -130 72 -52 19
-53 21 -29 30 14 6 74 33 133 61 76 36 106 54 101 63 -16 29 -38 48 -53 47 -9
-1 -111 -44 -228 -98z"/>
<path d="M2050 3982 c0 -43 20 -72 62 -91 63 -28 127 -40 157 -31 14 5 43 11
63 15 50 8 87 41 97 88 10 42 11 42 -70 23 -66 -16 -95 -30 -108 -53 -8 -16
-11 -15 -30 9 -15 18 -37 30 -73 38 -29 6 -63 13 -75 16 -18 5 -23 2 -23 -14z"/>
<path d="M4304 3968 c8 -43 55 -85 103 -93 21 -3 48 -10 60 -15 13 -5 34 -6
50 0 15 4 45 11 65 15 48 7 95 47 103 86 4 17 5 32 3 35 -5 4 -123 -20 -149
-30 -9 -4 -22 -18 -30 -32 l-13 -25 -13 24 c-7 13 -25 29 -40 35 -24 9 -123
32 -140 32 -3 0 -3 -15 1 -32z"/>
<path d="M2053 3825 c9 -53 33 -74 113 -96 65 -17 73 -18 138 -2 81 19 114 44
126 96 7 33 6 37 -8 33 -10 -3 -41 -10 -70 -16 -65 -12 -89 -24 -97 -50 -3
-11 -10 -20 -15 -20 -5 0 -12 9 -15 20 -8 25 -32 38 -92 50 -27 5 -57 12 -67
16 -17 7 -19 4 -13 -31z"/>
<path d="M4300 3845 c0 -29 30 -82 53 -93 12 -6 49 -18 82 -26 51 -13 69 -13
115 -2 88 21 117 40 131 86 7 22 10 42 7 45 -3 3 -18 1 -34 -4 -16 -5 -47 -12
-68 -16 -25 -4 -50 -17 -67 -36 -27 -29 -28 -29 -39 -10 -14 27 -38 39 -97 51
-27 5 -56 12 -65 15 -13 5 -18 2 -18 -10z"/>
<path d="M2050 3689 c0 -49 42 -86 120 -103 64 -15 76 -15 139 -1 45 11 76 24
91 40 25 26 46 99 26 92 -6 -3 -38 -10 -71 -17 -42 -9 -67 -21 -89 -42 -19
-20 -32 -26 -34 -18 -9 26 -45 46 -112 61 l-70 16 0 -28z"/>
<path d="M4300 3706 c0 -55 56 -115 107 -116 10 -1 34 -7 54 -14 19 -7 42 -9
50 -5 8 4 41 14 74 21 50 11 63 19 82 47 28 42 31 86 6 76 -10 -3 -39 -10 -66
-15 -59 -12 -83 -24 -97 -51 -11 -19 -12 -19 -40 11 -15 16 -30 30 -33 30 -12
0 -104 19 -119 25 -13 5 -18 2 -18 -9z"/>
<path d="M2355 3565 c-54 -13 -95 -31 -95 -43 0 -4 -4 -13 -9 -21 -7 -11 -14
-9 -33 13 -18 20 -37 29 -87 37 -35 5 -69 11 -75 12 -16 3 -9 -44 13 -73 10
-14 35 -30 57 -37 70 -21 124 -31 129 -23 3 4 21 11 42 15 82 15 133 60 133
115 0 22 -5 23 -75 5z"/>
<path d="M4304 3553 c12 -51 40 -77 102 -96 32 -11 66 -21 74 -25 8 -3 20 -4
25 -2 6 1 33 7 60 11 28 5 61 14 73 21 26 14 52 57 52 86 0 18 -4 18 -47 10
-94 -19 -123 -29 -133 -49 -11 -19 -12 -18 -35 10 -18 21 -42 33 -89 45 -87
22 -89 21 -82 -11z"/>
<path d="M2333 3415 c-56 -26 -74 -39 -79 -59 -8 -32 -11 -32 -34 -4 -15 19
-31 24 -97 29 -43 3 -80 4 -82 3 -7 -6 9 -52 27 -74 15 -19 32 -24 103 -30 46
-4 89 -5 94 -1 6 4 31 15 57 25 60 22 98 66 98 112 0 19 -3 34 -7 33 -5 0 -40
-15 -80 -34z"/>
<path d="M4310 3438 c0 -7 5 -30 11 -51 11 -41 35 -60 115 -93 46 -18 64 -20
128 -14 42 4 83 14 92 21 16 13 49 79 42 83 -2 2 -38 1 -81 -2 -64 -3 -81 -8
-99 -27 l-22 -23 -18 30 c-25 39 -168 105 -168 76z"/>
<path d="M2378 3284 c-50 -32 -69 -51 -79 -78 -12 -33 -14 -35 -31 -20 -14 14
-31 15 -103 9 -82 -7 -85 -8 -80 -28 4 -12 18 -33 33 -46 24 -22 31 -23 106
-17 56 5 87 12 101 25 11 10 36 28 56 40 52 30 71 63 67 115 l-3 43 -67 -43z"/>
<path d="M4286 3313 c-20 -52 12 -108 94 -162 54 -36 70 -41 138 -47 74 -6 78
-5 103 20 15 15 29 35 32 45 4 18 -3 20 -80 26 -70 6 -87 5 -102 -9 -23 -21
-31 -20 -31 2 0 29 -28 60 -90 101 -47 31 -60 36 -64 24z"/>
<path d="M1350 3233 c0 -84 41 -147 123 -188 l52 -27 -60 6 c-33 4 -72 9 -87
12 -34 7 -31 -6 20 -85 39 -59 106 -116 170 -145 36 -16 41 -22 35 -40 -16
-43 -9 -110 14 -140 17 -21 20 -33 13 -46 -21 -39 -11 -75 30 -115 22 -21 40
-46 40 -55 1 -25 36 -94 64 -124 15 -17 26 -41 26 -57 0 -34 39 -81 90 -110
22 -13 41 -32 45 -46 9 -36 72 -100 111 -113 19 -6 34 -15 34 -19 0 -20 77
-82 114 -92 22 -6 55 -25 71 -41 17 -17 53 -41 81 -54 28 -12 58 -33 67 -47
20 -30 110 -77 151 -78 79 -2 69 -15 -51 -63 -135 -55 -159 -71 -140 -94 19
-23 72 -42 119 -42 33 0 49 -6 67 -26 22 -23 31 -25 75 -21 28 2 61 8 74 12
17 6 22 4 22 -9 0 -23 47 -39 99 -33 34 4 51 0 79 -19 19 -13 41 -24 49 -24
37 0 73 34 117 107 l45 79 41 -4 c35 -4 40 -7 40 -30 0 -17 -14 -40 -37 -64
l-37 -38 47 0 c45 0 47 -1 70 -46 l23 -46 27 41 c25 38 31 41 71 41 24 0 57 3
73 6 28 6 34 1 71 -51 l42 -58 10 27 c5 15 13 38 16 51 6 25 12 28 74 41 l34
7 -46 23 c-41 21 -45 26 -43 56 2 18 12 40 24 49 19 15 25 16 49 4 33 -17 245
-16 262 1 7 7 35 10 75 6 55 -4 72 -1 117 21 29 14 74 28 99 32 27 3 67 20 98
39 28 18 68 36 89 40 52 8 101 41 113 75 7 19 24 35 50 46 46 21 99 77 99 104
0 12 17 29 45 45 49 29 75 69 75 114 0 18 10 38 30 57 35 33 60 83 60 118 0
14 11 38 24 54 37 45 48 73 56 143 13 118 103 270 221 371 161 139 188 186
196 349 l5 95 -38 -36 c-100 -93 -301 -192 -565 -279 -268 -88 -299 -114 -465
-389 -105 -175 -176 -250 -286 -303 -119 -59 -278 -89 -380 -74 l-44 7 -28 87
c-39 117 -89 225 -128 274 -58 74 -200 118 -266 84 -18 -9 -32 -20 -32 -25 0
-4 -29 -7 -63 -7 -73 1 -112 -15 -133 -56 -28 -54 -21 -63 46 -60 78 5 121
-20 146 -83 31 -81 2 -181 -57 -195 -39 -9 -148 9 -213 37 -157 66 -336 236
-526 499 -168 233 -234 298 -349 344 -28 11 -130 40 -226 65 -185 47 -305 90
-367 131 -47 30 -48 30 -48 -3z m145 -88 c55 -25 150 -61 211 -80 106 -33 183
-76 184 -102 0 -7 7 -13 15 -13 8 0 15 -7 15 -15 0 -8 7 -15 15 -15 8 0 15 -9
15 -20 0 -11 7 -20 16 -20 11 0 14 -6 9 -20 -5 -16 -2 -20 14 -20 14 0 21 -6
21 -20 0 -13 7 -20 20 -20 17 0 19 -5 14 -25 -5 -20 -3 -25 14 -25 15 0 19 -5
15 -20 -4 -14 0 -20 11 -20 10 0 16 -9 16 -24 0 -16 7 -26 21 -29 17 -5 20
-11 15 -31 -3 -14 -3 -26 1 -26 5 0 14 -4 22 -9 12 -8 12 -12 2 -25 -12 -14
-10 -16 8 -16 14 0 21 -6 21 -20 0 -11 6 -20 14 -20 9 0 12 -8 9 -24 -4 -17 0
-25 15 -28 15 -4 19 -12 15 -32 -4 -21 -2 -26 16 -26 17 0 21 -6 21 -30 0 -26
4 -30 26 -30 21 0 24 -4 19 -20 -5 -15 0 -21 19 -26 19 -4 26 -13 26 -30 0
-20 5 -24 30 -24 27 0 30 -3 30 -30 0 -28 3 -30 28 -28 23 3 27 -1 30 -24 3
-28 16 -36 27 -18 12 20 35 10 35 -14 0 -27 15 -42 25 -26 11 18 35 11 35 -11
0 -18 4 -20 29 -14 24 5 30 2 36 -15 5 -17 12 -20 34 -15 22 5 30 1 41 -20 12
-23 15 -24 30 -10 16 14 19 13 33 -7 12 -18 18 -20 28 -11 10 10 16 10 27 0 8
-6 27 -13 41 -14 14 -1 49 -3 76 -5 28 -2 55 -6 62 -11 17 -11 43 3 43 23 0
20 -11 25 -80 35 -216 32 -459 147 -604 285 -72 69 -84 85 -143 210 -87 179
-175 312 -273 410 -3 3 -18 20 -35 39 -30 33 -30 33 -5 26 40 -12 151 -89 191
-131 20 -22 90 -109 154 -194 234 -307 312 -386 465 -469 77 -41 223 -93 297
-106 39 -6 44 -5 55 20 10 22 13 24 21 10 6 -11 16 -15 33 -11 19 5 25 2 30
-19 7 -28 13 -30 49 -13 22 10 29 9 47 -10 l22 -22 23 22 23 22 29 -22 29 -21
16 24 c16 24 18 24 45 11 27 -14 29 -14 39 9 12 25 12 25 48 7 23 -10 39 -13
41 -7 2 7 41 9 106 7 124 -5 197 11 313 68 110 54 205 143 263 246 72 129 111
185 175 252 99 104 170 144 326 186 114 31 162 51 314 131 99 52 181 93 183
91 2 -2 1 -16 -3 -30 -5 -20 -30 -43 -88 -82 -77 -52 -77 -62 2 -33 43 16 43
9 2 -40 -28 -33 -61 -58 -103 -77 l-62 -29 38 -3 c20 -2 37 -6 37 -9 0 -3 -18
-22 -41 -41 -31 -27 -55 -64 -99 -157 -56 -119 -59 -123 -96 -131 l-38 -10 31
-19 31 -20 -31 -72 -31 -71 -60 -7 -60 -7 33 -27 33 -27 -26 -64 c-17 -41 -44
-82 -72 -111 -38 -39 -49 -45 -77 -41 l-32 5 24 -26 24 -26 -54 -49 c-30 -27
-68 -61 -85 -75 l-31 -26 -23 24 c-33 35 -40 31 -34 -18 5 -37 3 -45 -12 -51
-10 -4 -59 -31 -109 -61 -51 -30 -98 -55 -105 -55 -8 0 -24 9 -36 21 -28 26
-44 18 -44 -22 0 -25 -6 -33 -37 -46 -21 -8 -59 -17 -85 -19 -25 -1 -65 -8
-88 -14 -32 -9 -49 -9 -70 0 -21 9 -34 9 -48 1 -28 -15 -74 -14 -97 2 -17 13
-17 17 -1 96 9 45 16 120 16 167 0 85 -24 231 -41 248 -19 20 -20 -6 -3 -81
35 -154 14 -373 -36 -373 -18 0 -20 7 -20 59 0 52 -3 62 -26 80 -53 42 -119
23 -142 -39 l-9 -25 -17 33 c-19 37 -57 56 -96 47 -48 -11 -69 -44 -82 -130
-6 -44 -12 -81 -14 -83 -1 -2 -58 12 -127 32 -69 19 -197 48 -284 65 -87 17
-181 36 -208 41 -70 14 -114 44 -133 89 -15 35 -22 40 -69 51 -51 11 -93 45
-93 75 0 7 -21 18 -46 24 -63 16 -93 38 -102 74 -6 25 -15 33 -40 38 -53 11
-81 36 -94 84 -9 34 -19 47 -41 56 -43 18 -75 54 -88 99 -9 28 -22 46 -46 60
-40 23 -63 72 -56 117 4 24 1 34 -11 39 -8 3 -25 21 -37 40 -16 27 -20 44 -15
77 5 33 2 49 -14 72 -25 38 -25 85 0 118 l20 25 -48 12 c-55 13 -162 60 -162
70 0 3 24 3 53 -1 130 -19 157 -4 45 25 -81 20 -143 45 -173 70 -19 16 -17 17
45 15 36 -2 85 -2 110 0 l45 2 -71 37 c-76 40 -119 72 -147 112 -15 22 -22 40
-14 40 1 0 47 -20 102 -45z m1842 -604 c72 -36 112 -93 163 -230 16 -44 41
-103 55 -132 17 -32 22 -50 13 -47 -47 18 -58 19 -58 4 0 -23 -17 -28 -43 -11
-22 14 -24 14 -37 -10 -15 -29 -23 -31 -40 -10 -18 21 -35 19 -53 -7 l-15 -23
-21 27 c-21 27 -23 27 -47 11 -22 -14 -27 -14 -35 -2 -5 8 -9 20 -9 27 0 15
-6 15 -31 1 -19 -10 -20 -7 -13 94 6 96 5 109 -15 151 -28 57 -73 86 -135 86
-42 0 -46 2 -37 19 23 43 83 49 203 19 33 -8 54 -8 70 -1 22 10 20 11 -22 23
-55 16 -54 16 -45 31 11 17 104 5 152 -20z m11 -827 c20 -13 22 -24 22 -96 0
-70 -2 -79 -15 -68 -11 9 -18 10 -29 1 -11 -9 -15 -8 -20 5 -6 15 -8 16 -24 0
-23 -20 -32 -20 -32 0 0 14 -3 14 -15 4 -19 -16 -20 3 -3 84 10 51 15 60 42
72 40 17 47 17 74 -2z m210 -12 c7 -9 12 -46 12 -90 0 -73 -1 -75 -19 -58 -17
16 -19 16 -25 -1 -7 -17 -8 -17 -20 -1 -11 16 -15 16 -34 2 -20 -14 -22 -14
-22 0 0 19 -12 20 -28 4 -17 -17 -15 -6 13 120 7 27 60 54 90 46 11 -4 26 -13
33 -22z m-811 -100 c15 -10 -211 -132 -257 -139 -27 -4 -39 0 -53 15 -18 19
-17 20 55 50 40 17 100 41 133 55 62 26 101 32 122 19z m80 -30 c20 -6 13 -14
-60 -73 -106 -85 -123 -94 -153 -80 -45 20 -29 43 74 103 101 59 103 60 139
50z m131 -37 c1 -1 -25 -36 -58 -78 -43 -55 -67 -77 -83 -77 -24 0 -67 26 -67
40 0 5 31 36 70 69 63 54 73 60 102 54 18 -3 34 -7 36 -8z m342 -10 c0 -9 6
-12 17 -8 14 5 15 1 10 -35 -5 -39 -3 -44 36 -78 l42 -36 -48 5 c-44 4 -49 2
-76 -31 l-28 -36 -14 37 c-13 36 -14 37 -54 32 l-40 -5 37 33 c30 27 39 44 44
79 5 37 10 45 24 41 10 -3 21 0 24 6 10 16 26 13 26 -4z m231 -5 c15 24 29 -7
29 -66 0 -45 3 -52 28 -64 l27 -13 -30 -6 c-24 -5 -31 -12 -33 -36 -6 -49 -17
-48 -41 3 -22 46 -24 48 -58 44 l-36 -5 20 26 c17 22 19 34 13 67 -6 35 -4 43
13 55 18 13 23 13 40 -2 16 -15 19 -15 28 -3z m-484 4 l22 -6 -30 -59 c-49
-97 -83 -119 -128 -81 -21 17 -20 17 35 85 56 68 62 71 101 61z m377 -47 c5
-30 3 -45 -9 -56 -14 -14 -17 -13 -36 5 -29 29 -19 88 16 90 19 2 24 -4 29
-39z"/>
<path d="M4940 2839 c-25 -11 -89 -36 -142 -54 -186 -65 -217 -91 -373 -310
-191 -270 -331 -385 -554 -455 l-84 -26 32 -23 32 -23 6 21 c6 24 15 26 45 10
17 -9 19 -8 13 10 -5 16 -1 22 20 27 15 4 38 1 51 -5 34 -15 34 -15 34 17 0
33 31 52 85 52 27 0 32 3 28 18 -4 16 0 18 26 14 28 -4 31 -2 31 22 0 22 4 26
30 26 27 0 30 2 20 19 -14 28 -15 27 38 62 26 18 49 38 51 43 2 6 18 24 35 40
17 16 31 34 31 42 0 24 119 178 200 259 78 78 83 81 197 124 65 24 139 59 165
77 54 38 49 42 -17 13z"/>
<path d="M3078 1863 c-19 -32 -23 -51 -23 -118 0 -75 2 -84 33 -125 37 -51 41
-47 10 13 -31 60 -32 168 0 220 25 43 26 47 13 47 -5 0 -20 -17 -33 -37z"/>
<path d="M2443 3177 c-56 -57 -73 -85 -73 -117 0 -17 -3 -19 -19 -10 -11 5
-27 10 -37 10 -16 0 -131 -47 -147 -60 -4 -4 4 -19 17 -33 30 -33 68 -35 134
-7 26 10 53 21 61 22 22 5 111 106 128 145 14 34 10 87 -6 97 -4 3 -30 -18
-58 -47z"/>
<path d="M4226 3214 c-10 -27 -7 -74 8 -102 25 -47 118 -128 175 -150 70 -29
112 -28 139 1 24 25 29 47 11 47 -6 0 -38 12 -71 27 -51 22 -65 25 -89 16 -27
-11 -29 -10 -35 24 -5 26 -24 53 -66 94 -33 33 -61 59 -63 59 -1 0 -6 -7 -9
-16z"/>
<path d="M4757 3202 c-10 -10 -17 -21 -17 -25 0 -3 20 -18 45 -33 25 -14 45
-29 45 -33 0 -3 -24 -12 -52 -19 -128 -30 -130 -31 -123 -60 4 -15 8 -28 10
-30 6 -6 345 81 345 89 0 4 -9 10 -19 14 -11 3 -60 30 -110 60 -50 30 -94 55
-99 55 -5 0 -16 -8 -25 -18z"/>
<path d="M2495 3058 c-35 -56 -45 -80 -43 -105 4 -30 2 -31 -27 -26 -23 3 -45
-5 -97 -39 -37 -24 -68 -46 -68 -51 0 -17 65 -47 90 -42 51 12 135 79 173 137
52 78 62 117 43 163 -8 19 -17 35 -20 35 -2 0 -25 -33 -51 -72z"/>
<path d="M4170 3100 c-18 -43 -6 -96 35 -155 19 -28 35 -57 35 -63 0 -7 5 -12
12 -12 6 0 26 -11 45 -26 18 -14 49 -32 68 -40 32 -13 39 -13 70 2 19 9 35 21
35 28 0 6 -29 31 -65 55 -51 35 -70 43 -93 38 -28 -6 -29 -5 -29 32 0 27 -12
55 -44 104 -24 37 -47 67 -50 67 -4 0 -12 -14 -19 -30z"/>
<path d="M2617 3110 c-36 -109 -41 -167 -22 -212 5 -13 3 -18 -8 -18 -25 0
-62 -36 -101 -100 -31 -50 -36 -64 -25 -71 23 -15 55 -10 83 12 31 24 106 134
106 154 0 8 7 40 15 72 8 31 15 70 15 85 0 34 -56 102 -63 78z"/>
<path d="M4102 3113 c-20 -7 -42 -59 -42 -98 0 -71 33 -168 81 -235 50 -71 83
-91 123 -72 l25 11 -49 75 c-34 51 -58 78 -75 82 -14 3 -25 7 -25 8 0 0 4 16
10 35 7 27 5 53 -11 115 -11 45 -21 82 -22 82 -1 1 -8 -1 -15 -3z"/>
<path d="M2710 2974 c-12 -71 -12 -77 8 -103 l20 -28 -33 -12 c-24 -8 -44 -29
-74 -77 -23 -36 -41 -67 -41 -70 0 -10 96 -2 111 9 8 7 34 41 57 75 40 60 42
68 45 144 2 78 2 80 -31 109 -18 16 -36 29 -41 29 -4 0 -14 -34 -21 -76z"/>
<path d="M3979 3035 c-40 -22 -52 -63 -44 -146 8 -76 40 -140 94 -186 27 -24
111 -33 111 -13 0 8 -28 54 -66 108 -9 13 -29 28 -44 34 -28 9 -28 10 -13 36
13 22 14 43 9 105 -4 42 -11 77 -14 77 -4 -1 -19 -7 -33 -15z"/>
<path d="M2850 2930 c0 -62 4 -82 20 -103 25 -32 25 -34 -5 -41 -18 -5 -33
-24 -59 -79 -19 -39 -32 -75 -29 -79 7 -13 52 -9 82 6 18 10 40 39 62 84 33
67 34 72 28 152 -5 76 -8 85 -34 106 -58 46 -65 41 -65 -46z"/>
<path d="M3853 2995 c-47 -20 -63 -52 -67 -134 -3 -55 0 -80 15 -111 10 -21
19 -43 19 -47 0 -5 12 -24 28 -42 20 -24 38 -34 70 -38 26 -3 42 -2 42 5 0 5
-13 40 -30 77 -23 52 -37 69 -60 78 -29 11 -41 27 -20 27 23 0 41 61 38 130
l-3 68 -32 -13z"/>
<path d="M2987 2923 c10 -61 18 -83 38 -100 25 -22 25 -22 5 -33 -25 -14 -38
-38 -60 -116 l-17 -64 24 0 c55 0 86 31 109 110 9 30 20 59 25 64 4 5 4 16 0
25 -5 9 -11 38 -14 64 -8 61 -21 84 -60 107 -60 37 -65 30 -50 -57z"/>
<path d="M3136 2923 c9 -62 17 -81 38 -100 29 -25 32 -33 13 -33 -23 0 -45
-33 -61 -90 -8 -30 -18 -64 -22 -74 -7 -17 -4 -19 36 -13 54 7 67 20 94 98 25
74 55 97 102 79 37 -14 53 3 23 24 -13 9 -40 16 -61 16 -33 0 -38 3 -43 28
-21 101 -37 122 -101 136 l-31 7 13 -78z"/>
<path d="M3555 2986 c-35 -15 -61 -50 -70 -92 -15 -65 -27 -94 -41 -94 -24 0
-72 -28 -115 -67 -30 -27 -37 -38 -27 -44 21 -14 25 -12 83 41 77 70 92 66
120 -28 18 -60 53 -92 102 -92 29 0 32 2 25 18 -5 9 -15 40 -21 68 -12 50 -36
87 -62 96 -8 3 -3 13 14 30 15 15 28 42 31 64 4 22 10 56 15 77 9 42 0 46 -54
23z"/>
<path d="M3703 2985 c-17 -7 -37 -23 -43 -35 -11 -20 -32 -119 -32 -150 0 -30
32 -125 50 -150 18 -23 85 -50 97 -38 8 8 -22 117 -40 144 -8 13 -25 28 -36
35 l-21 11 23 12 c27 13 43 54 53 134 7 58 3 61 -51 37z"/>
<path d="M3407 2734 c-14 -14 44 -84 70 -84 21 0 15 15 -21 54 -37 38 -39 40
-49 30z"/>
<path d="M2570 2640 c-29 -7 -29 -15 -5 -104 l17 -63 82 20 c44 11 83 21 85
23 2 2 0 19 -3 39 -5 24 -12 35 -20 32 -8 -3 -34 -8 -59 -12 l-46 -7 -6 36
c-8 42 -12 45 -45 36z"/>
<path d="M773 3743 c9 -2 23 -2 30 0 6 3 -1 5 -18 5 -16 0 -22 -2 -12 -5z"/>
<path d="M417 3254 c-4 -4 -7 -13 -7 -21 0 -10 22 -13 91 -13 81 0 90 2 87 18
-3 14 -16 17 -84 20 -44 1 -83 0 -87 -4z"/>
<path d="M5992 2468 c2 -18 16 -27 67 -46 69 -24 96 -25 96 -3 0 8 -27 24 -65
38 -107 38 -102 38 -98 11z"/>
<path d="M3607 814 c-17 -35 -17 -35 5 -32 18 2 24 11 26 36 4 42 -10 41 -31
-4z"/>
<path d="M3241 868 c-16 -45 13 -84 44 -58 19 16 19 44 -1 64 -21 22 -33 20
-43 -6z"/>
<path d="M3430 871 c-22 -43 -6 -151 24 -151 19 0 26 22 26 81 0 51 -13 89
-30 89 -5 0 -14 -9 -20 -19z"/>
<path d="M2114 759 c-24 -25 -26 -31 -14 -39 27 -17 37 -11 43 27 4 20 5 38 3
40 -1 1 -16 -11 -32 -28z"/>
<path d="M2618 606 c-5 -26 11 -36 59 -36 52 0 34 43 -23 55 -28 5 -32 3 -36
-19z"/>
<path d="M2596 514 c-9 -33 -6 -35 49 -41 41 -5 45 -4 45 16 0 16 -10 26 -35
37 -47 19 -52 18 -59 -12z"/>
<path d="M3927 545 c-4 -9 -7 -27 -7 -39 0 -19 4 -22 25 -18 30 5 31 18 6 51
-16 21 -19 21 -24 6z"/>
<path d="M2876 551 c-29 -31 -32 -92 -6 -118 42 -45 97 -16 107 55 4 32 1 47
-12 62 -23 25 -67 26 -89 1z"/>
<path d="M3159 480 l-17 -38 30 -4 c28 -4 29 -3 22 26 -11 53 -18 56 -35 16z"/>
</g>
</svg>
